<svg xmlns="http://www.w3.org/2000/svg" viewBox="0 0 64 64" role="img" aria-labelledby="title">
  <title id="title">ChainLaunch</title>
  <rect width="64" height="64" rx="12" fill="#0f0f3d"/>
  <path fill="#fff" transform="translate(14.5 46.5) scale(1.2)" d="M14.929688.574219C12.304688.574219 10.007812.0234375 8.039062-1.078125 6.070312-2.183594 4.550781-3.753906 3.480469-5.785156 2.40625-7.816406 1.871094-10.175781 1.871094-12.863281S2.40625-17.910156 3.480469-19.945312C4.550781-21.976562 6.070312-23.542969 8.039062-24.648438 10.007812-25.753906 12.304688-26.304688 14.929688-26.304688 18.382812-26.304688 21.246094-25.40625 23.519531-23.617188 25.792969-21.824219 27.121094-19.359375 27.503906-16.222656L20.0625-15.886719C19.839844-17.457031 19.273438-18.65625 18.359375-19.488281 17.449219-20.320312 16.304688-20.734375 14.929688-20.734375 13.136719-20.734375 11.742188-20.046875 10.753906-18.671875 9.761719-17.296875 9.265625-15.359375 9.265625-12.863281S9.761719-8.425781 10.753906-7.03125C11.742188-5.640625 13.136719-4.945312 14.929688-4.945312 16.367188-4.945312 17.535156-5.375 18.433594-6.238281 19.328125-7.105469 19.871094-8.382812 20.0625-10.078125L27.503906-9.792969C27.152344-6.625 25.839844-4.105469 23.566406-2.230469 21.296875-.359375 18.414062.574219 14.929688.574219Z"/>
</svg>
